<svg width="310" height="308" viewBox="0 0 310 308" fill="none" xmlns="http://www.w3.org/2000/svg">
<path d="M0.120003 117.14C15.13 111.04 29.96 105 44.91 98.92C56.63 127.44 71.99 153.59 91.9 176.98C111.87 200.45 135.11 219.86 163.11 233.58C162.71 233.95 162.43 234.3 162.07 234.51C155.77 238.34 149.48 242.2 143.12 245.92C142.31 246.39 141 246.48 140.07 246.2C110.52 237.5 84.24 222.82 61.02 202.67C34.42 179.58 14.56 151.6 0.910004 119.18C0.670004 118.61 0.460001 118.03 0.110001 117.12L0.120003 117.14Z" fill="#3E6AC8"/>
<path d="M195.44 0.120003C201.55 15.11 207.57 29.88 213.63 44.76C157.61 68.64 111.22 103.68 81.08 158.14C77.33 152.51 73.83 146.81 69.87 141.45C67.45 138.18 67.49 135.29 68.79 131.6C78.93 102.86 94.34 77.36 115.15 55.1C137.18 31.54 163.18 13.69 192.88 1.16C193.64 0.840004 194.4 0.540003 195.44 0.120003Z" fill="#3E6AC8"/>
<path d="M309.27 189.66C294.37 195.72 279.54 201.76 264.59 207.84C241.84 154.23 208.53 109.5 157.68 78.95C159.57 77.64 161.35 76.31 163.23 75.11C168.51 71.74 173.85 68.45 179.12 65.05C180.24 64.33 181.15 64.35 182.35 64.79C209.16 74.8 232.99 89.63 253.94 109.1C277.98 131.45 296.06 157.93 308.73 188.16C308.91 188.59 309.05 189.04 309.28 189.66H309.27Z" fill="#3E6AC8"/>
<path d="M133.02 307.73C126.93 292.77 120.91 278.01 114.83 263.08C165.1 241.95 207.54 211.13 238.39 165.1C242.37 172.11 246.2 178.87 250.03 185.62C250.27 186.04 250.47 186.48 250.7 186.9C253.51 192.19 253.54 192.2 250.95 197.52C226.09 248.68 187 284.8 134.82 307.05C134.32 307.26 133.8 307.43 133.01 307.72L133.02 307.73Z" fill="#3E6AC8"/>
<path d="M161.26 130.31C176.43 130.17 187.72 142.31 188.87 154.65C189.69 163.51 187.42 171.34 181.08 177.77C175.59 183.33 168.75 186.25 161.07 186.12C146 185.87 132.77 173.89 133.37 157.06C133.96 140.82 147.5 130.09 161.27 130.31H161.26Z" fill="#3E6AC8"/>
</svg>
