<?xml version="1.0" encoding="UTF-8"?>
<svg id="Layer_1" xmlns="http://www.w3.org/2000/svg" viewBox="0 0 1196.24 503.85">
  <defs>
    <style>
      .cls-1 {
        fill: #3e6ac8;
      }
    </style>
  </defs>
  <g>
    <path class="cls-1" d="M98.12,215.14c15.01-6.1,29.84-12.14,44.79-18.22,11.72,28.52,27.08,54.67,46.99,78.06,19.97,23.47,43.21,42.88,71.21,56.6-.4.37-.68.72-1.04.93-6.3,3.83-12.59,7.69-18.95,11.41-.81.47-2.12.56-3.05.28-29.55-8.7-55.83-23.38-79.05-43.53-26.6-23.09-46.46-51.07-60.11-83.49-.24-.57-.45-1.15-.8-2.06Z"/>
    <path class="cls-1" d="M293.44,98.12c6.11,14.99,12.13,29.76,18.19,44.64-56.02,23.88-102.41,58.92-132.55,113.38-3.75-5.63-7.25-11.33-11.21-16.69-2.42-3.27-2.38-6.16-1.08-9.85,10.14-28.74,25.55-54.24,46.36-76.5,22.03-23.56,48.03-41.41,77.73-53.94.76-.32,1.52-.62,2.56-1.04Z"/>
    <path class="cls-1" d="M407.27,287.66c-14.9,6.06-29.73,12.1-44.68,18.18-22.75-53.61-56.06-98.34-106.91-128.89,1.89-1.31,3.67-2.64,5.55-3.84,5.28-3.37,10.62-6.66,15.89-10.06,1.12-.72,2.03-.7,3.23-.26,26.81,10.01,50.64,24.84,71.59,44.31,24.04,22.35,42.12,48.83,54.79,79.06.18.43.32.88.55,1.5Z"/>
    <path class="cls-1" d="M231.02,405.73c-6.09-14.96-12.11-29.72-18.19-44.65,50.27-21.13,92.71-51.95,123.56-97.98,3.98,7.01,7.81,13.77,11.64,20.52.24.42.44.86.67,1.28,2.81,5.29,2.84,5.3.25,10.62-24.86,51.16-63.95,87.28-116.13,109.53-.5.21-1.02.38-1.81.67Z"/>
    <path class="cls-1" d="M259.26,228.31c15.17-.14,26.46,12,27.61,24.34.82,8.86-1.45,16.69-7.79,23.12-5.49,5.56-12.33,8.48-20.01,8.35-15.07-.25-28.3-12.23-27.7-29.06.59-16.24,14.13-26.97,27.9-26.75Z"/>
  </g>
  <g>
    <path class="cls-1" d="M565.67,196.57c-.77-2.32-1.36-4.51-2.2-6.6-3.64-9.02-12.32-14.71-22.05-14.58-4.61.06-9.21-.24-13.73,1.22-7.27,2.35-11.79,7.11-12.66,14.7-.58,5.08,2.08,8.94,6.16,11.83,4.51,3.2,9.67,4.94,14.85,6.62,9.04,2.92,18.16,5.61,27.11,8.78,8.63,3.06,16.74,7.2,23.19,13.93,6.37,6.64,9.68,14.49,9.83,23.81.11,7.34-.44,14.46-3.58,21.2-4.93,10.61-13.42,17.27-24.05,21.48-7.02,2.78-14.35,4.34-21.9,4.65-4.98.2-10.03.5-14.96-.05-16.65-1.85-31.84-7.06-43.1-20.38-5.23-6.19-8.18-13.48-10.03-21.28-.11-.45-.01-.95-.01-1.68,10.61-2.43,21.23-4.86,31.76-7.27.88,2.96,1.49,5.72,2.51,8.32,2.83,7.2,8.02,12.11,15.26,14.78,7.98,2.94,16.11,3.35,24.24.69,7.71-2.53,11.9-8.38,11.91-16.27,0-6.38-3.2-10.9-8.4-14.23-5.87-3.76-12.47-5.77-19-7.96-9-3.03-18.06-5.92-26.92-9.31-6.6-2.52-12.55-6.31-17.44-11.56-4.86-5.22-7.62-11.42-8.51-18.45-2.79-21.95,9.55-39.72,31.33-46.3,8.01-2.42,16.21-3.26,24.53-2.91,9.97.42,19.69,2.02,28.85,6.23,13.43,6.17,22.48,16.11,26.33,30.52.21.78.34,1.59.57,2.64-9.99,2.48-19.85,4.93-29.86,7.41Z"/>
    <path class="cls-1" d="M748.54,301.59v-149.63c.51-.05,1.03-.16,1.55-.16,20.91,0,41.81-.17,62.72.07,13.44.16,25.04,5.06,34.02,15.31,6.19,7.07,9.74,15.33,11.04,24.69,1.44,10.3.68,20.29-3.6,29.79-6.73,14.92-18.64,23.12-34.6,25.67-3.1.5-6.3.58-9.45.6-9.38.07-18.77.03-28.15.03-.74,0-1.48,0-2.43,0v53.63h-31.1ZM779.72,221.64c10.44,0,20.74.52,30.95-.15,9.23-.61,14.96-6.02,17.05-14.38,1.16-4.67,1.14-9.45.06-14.12-1.47-6.39-5.23-11.1-11.49-13.31-2.86-1.01-5.99-1.64-9.02-1.72-8.68-.24-17.37-.11-26.05-.12-.47,0-.93.07-1.5.12v43.68Z"/>
    <path class="cls-1" d="M721.41,254.03h-78.88c-.12,8.81,4.74,20.76,17.36,24.79,6.12,1.95,12.24,2.17,18.41.2,6.17-1.97,10.69-5.86,13.6-11.61.47-.93.86-1.58,2.13-1.38,8.56,1.33,17.12,2.59,26,3.92-.28.85-.49,1.6-.78,2.33-6.77,17.1-19.58,26.9-37.34,30.43-4.66.93-9.52,1.49-14.25,1.28-15.3-.67-29.49-4.58-40.61-15.97-7.53-7.71-11.63-17.14-13.33-27.66-1.99-12.33-1.3-24.46,3.49-36.09,7.05-17.12,20.3-26.7,38.15-30.14,5.02-.97,10.24-1.33,15.36-1.23,12.45.22,24.17,3.06,33.99,11.29,8.85,7.41,13.5,17.14,15.7,28.32,1.26,6.43,1.1,12.86,1.13,19.32,0,.67-.08,1.35-.14,2.23ZM691.73,234.46c.08-.18.15-.36.23-.54-1.03-9.71-6.75-16.86-15.77-19-3.16-.75-6.56-.56-9.85-.61-11.73-.17-21.43,8.23-23.01,19.84.13.11.26.22.39.33,16.01,0,32.01,0,48.02-.01Z"/>
    <path class="cls-1" d="M940.19,290.34c-.78.94-1.45,1.99-2.34,2.8-5.77,5.27-12.7,8.23-20.28,9.6-4.22.76-8.56,1.39-12.81,1.23-6.11-.23-12.15-1.38-17.67-4.34-7.58-4.07-11.93-10.44-13.35-18.83-1.91-11.34.2-21.49,9.29-29.34,4.29-3.7,9.31-6.27,14.71-7.75,9.89-2.7,19.88-5.01,29.82-7.49,1.87-.47,3.76-.89,5.57-1.52,6.97-2.44,8.91-8.42,4.81-14.63-1.85-2.8-4.55-4.46-7.68-5.25-5.61-1.41-11.33-1.57-16.93,0-6.14,1.73-9.92,5.95-11.64,12.05-.2.73-.37,1.46-.6,2.18-.1.31-.31.59-.48.92-8.61-1.59-17.2-3.18-25.98-4.8.13-.77.21-1.44.37-2.09,3.38-14.03,12-23.25,25.86-27.12,14.32-4,28.86-4.36,43.23-.27,14.25,4.06,22.07,13.86,23.85,28.48.35,2.86.45,5.77.46,8.66.06,14.68.05,29.36.07,44.05,0,7.08.73,14.07,2.31,20.98.27,1.16.19,2.41.28,3.74-.87.06-1.47.14-2.07.14-8,0-16.01-.04-24.01.04-1.49.02-2.05-.47-2.3-1.87-.55-3.09-1.24-6.15-1.87-9.22-.21-.12-.42-.24-.62-.36ZM941.42,253.13c-.61.12-1.01.17-1.4.28-6.88,1.94-13.77,3.86-20.63,5.86-3.75,1.1-7.58,2.06-11.17,3.59-4.42,1.88-6.86,5.37-6.54,10.41.26,4.2,3.34,7.68,7.86,9.41,4.55,1.74,9,1.09,13.48,0,5.6-1.36,9.96-4.54,13.19-9.29,4.14-6.09,4.92-13.03,5.22-20.25Z"/>
    <path class="cls-1" d="M982.47,195.11c5.73,0,11.17,0,16.61,0,4.62,0,9.25.1,13.87-.05,1.73-.06,2.36.6,2.91,2.11,7.9,21.95,15.86,43.88,23.82,65.81.21.57.47,1.11.88,2.08,1.98-5.13,3.82-9.89,5.66-14.66,6.86-17.79,13.73-35.57,20.52-53.39.57-1.5,1.28-1.94,2.82-1.93,8.76.07,17.53.03,26.29.03h2.29c-1.85,4.44-3.55,8.56-5.27,12.67-19.82,47.22-39.66,94.44-59.42,141.69-.86,2.05-1.86,2.68-4.04,2.64-8.28-.14-16.56-.06-24.84-.06h-2.54c.51-1.22.88-2.16,1.29-3.08,7.44-16.66,14.87-33.32,22.36-49.95.54-1.2.48-2.12-.02-3.28-13.99-32.5-27.95-65.01-41.91-97.53-.4-.94-.78-1.9-1.27-3.11Z"/>
    <path class="cls-1" d="M643.32,234.15c.13.11.26.22.39.33-.13-.11-.26-.22-.39-.33Z"/>
    <path class="cls-1" d="M691.73,234.46c.07-.18.15-.36.22-.54-.07.18-.15.36-.22.54Z"/>
  </g>
</svg>